ply
format ascii 1.0
comment Created by Blender 3.2.0 - www.blender.org
element vertex 256
property float x
property float y
property float z
property float nx
property float ny
property float nz
property float s
property float t
element face 544
property list uchar uint vertex_indices
end_header
1.596647 -1.823212 1.311884 -0.983264 -0.000000 -0.182185 0.672080 0.553433
1.628904 -1.985380 1.311884 -0.908418 -0.376279 -0.182185 0.628818 0.567562
1.620263 -1.988959 1.378294 -0.914849 -0.378944 -0.139470 0.632966 0.584150
1.587294 -1.823212 1.378294 -0.990228 -0.000000 -0.139458 0.678108 0.572555
1.644229 -1.979032 1.240559 -0.887153 -0.367471 -0.279149 0.623236 0.549800
1.613234 -1.823212 1.240559 -0.960248 -0.000000 -0.279150 0.663767 0.533149
1.667229 -1.969505 1.170450 -0.847935 -0.351226 -0.397048 0.616378 0.532094
1.638130 -1.823212 1.170450 -0.917798 -0.000000 -0.397048 0.653375 0.513272
1.699379 -1.956188 1.103984 -0.781525 -0.323718 -0.533316 0.608095 0.514520
1.672929 -1.823212 1.103984 -0.845916 -0.000000 -0.533316 0.640734 0.494141
1.742152 -1.938471 1.043592 -0.686698 -0.284439 -0.668984 0.598027 0.496853
1.719225 -1.823212 1.043592 -0.743277 -0.000000 -0.668984 0.625534 0.475876
1.781682 -1.922098 1.004138 -0.575548 -0.238399 -0.782247 0.588902 0.483432
1.762012 -1.823212 1.004138 -0.622968 -0.000001 -0.782247 0.611811 0.462416
1.822672 -1.905119 0.974778 -0.455006 -0.188469 -0.870316 0.579157 0.471184
1.806380 -1.823212 0.974778 -0.492494 -0.000001 -0.870316 0.597326 0.450922
1.864724 -1.887700 0.953990 -0.331313 -0.137235 -0.933487 0.568432 0.459759
1.851897 -1.823212 0.953990 -0.358610 0.000000 -0.933487 0.581668 0.441109
1.907441 -1.870006 0.940247 -0.218545 -0.090524 -0.971619 0.556310 0.449149
1.898133 -1.823212 0.940247 -0.236552 -0.000001 -0.971619 0.564721 0.434059
1.950423 -1.852203 0.932026 -0.127154 -0.052669 -0.990484 0.542598 0.439312
1.944656 -1.823212 0.932026 -0.137630 -0.000000 -0.990484 0.546967 0.428886
1.993272 -1.834454 0.927802 -0.071917 -0.029802 -0.996965 0.526916 0.430380
1.991036 -1.823212 0.927802 -0.078461 -0.000000 -0.996917 0.528272 0.425719
1.720764 -2.122859 1.311884 -0.695273 -0.695273 -0.182185 0.590239 0.576806
1.714151 -2.129473 1.378294 -0.700196 -0.700197 -0.139459 0.592875 0.591916
1.732494 -2.111130 1.240559 -0.678998 -0.678997 -0.279150 0.586751 0.560532
1.750098 -2.093526 1.170450 -0.648981 -0.648981 -0.397048 0.582510 0.544136
1.774704 -2.068920 1.103984 -0.598153 -0.598153 -0.533316 0.577413 0.527591
1.807441 -2.036183 1.043592 -0.525576 -0.525577 -0.668983 0.571211 0.510561
1.837695 -2.005929 1.004137 -0.440505 -0.440506 -0.782247 0.565553 0.497248
1.869068 -1.974556 0.974778 -0.348246 -0.348245 -0.870316 0.559462 0.484673
1.901254 -1.942370 0.953990 -0.253576 -0.253576 -0.933487 0.552662 0.472363
1.933947 -1.909676 0.940247 -0.167268 -0.167267 -0.971619 0.544792 0.459981
1.966844 -1.876779 0.932026 -0.097319 -0.097319 -0.990484 0.535463 0.447316
1.999640 -1.843984 0.927802 -0.055585 -0.055593 -0.996905 0.524120 0.434254
1.858244 -2.214720 1.311884 -0.376279 -0.908418 -0.182184 0.554339 0.582138
1.854665 -2.223361 1.378294 -0.378944 -0.914854 -0.139438 0.555650 0.596457
1.864591 -2.199395 1.240559 -0.367471 -0.887153 -0.279151 0.552612 0.566672
1.874119 -2.176394 1.170450 -0.351226 -0.847934 -0.397049 0.550517 0.551008
1.887436 -2.144244 1.103984 -0.323718 -0.781524 -0.533316 0.548000 0.535071
1.905153 -2.101472 1.043592 -0.284440 -0.686698 -0.668984 0.544933 0.518474
1.921526 -2.061942 1.004138 -0.238399 -0.575548 -0.782247 0.542117 0.505288
1.938505 -2.020952 0.974778 -0.188469 -0.455005 -0.870316 0.539060 0.492608
1.955924 -1.978899 0.953990 -0.137234 -0.331313 -0.933487 0.535609 0.479898
1.973617 -1.936183 0.940247 -0.090525 -0.218545 -0.971619 0.531543 0.466672
1.991421 -1.893201 0.932026 -0.052669 -0.127153 -0.990484 0.526572 0.452503
2.009170 -1.850352 0.927802 -0.029805 -0.071919 -0.996965 0.520258 0.436957
2.020411 -2.246977 1.311884 -0.000000 -0.983265 -0.182184 0.519731 0.584016
2.020411 -2.256330 1.378294 0.000000 -0.990228 -0.139459 0.519797 0.598040
2.020411 -2.230390 1.240559 0.000000 -0.960247 -0.279150 0.519621 0.568858
2.020411 -2.205494 1.170450 0.000000 -0.917798 -0.397049 0.519465 0.553485
2.020411 -2.170695 1.103984 0.000000 -0.845916 -0.533316 0.519258 0.537807
2.020411 -2.124398 1.043592 -0.000000 -0.743277 -0.668984 0.518988 0.521423
2.020411 -2.081612 1.004138 -0.000000 -0.622969 -0.782247 0.518715 0.508335
2.020411 -2.037244 0.974778 -0.000001 -0.492494 -0.870316 0.518396 0.495673
2.020411 -1.991727 0.953990 -0.000000 -0.358611 -0.933487 0.518003 0.482878
2.020411 -1.945491 0.940247 0.000000 -0.236552 -0.971619 0.517487 0.469407
2.020411 -1.898968 0.932026 0.000000 -0.137629 -0.990484 0.516771 0.454728
2.020411 -1.852588 0.927802 0.000002 -0.078460 -0.996917 0.515726 0.438213
2.182580 -2.214720 1.311884 0.376279 -0.908418 -0.182184 0.485306 0.582578
2.186159 -2.223361 1.378294 0.378944 -0.914854 -0.139438 0.484127 0.596741
2.176232 -2.199395 1.240559 0.367470 -0.887153 -0.279151 0.486807 0.567290
2.166704 -2.176394 1.170450 0.351225 -0.847934 -0.397050 0.488577 0.551816
2.153388 -2.144244 1.103984 0.323718 -0.781525 -0.533316 0.490658 0.536083
2.135670 -2.101472 1.043592 0.284440 -0.686698 -0.668984 0.493150 0.519705
2.119297 -2.061942 1.004138 0.238400 -0.575549 -0.782246 0.495383 0.506675
2.102318 -2.020952 0.974778 0.188470 -0.455006 -0.870315 0.497755 0.494125
2.084899 -1.978900 0.953990 0.137234 -0.331313 -0.933487 0.500361 0.481503
2.067205 -1.936183 0.940247 0.090524 -0.218545 -0.971619 0.503326 0.468281
2.049402 -1.893201 0.932026 0.052668 -0.127153 -0.990484 0.506805 0.453947
2.031653 -1.850352 0.927802 0.029801 -0.071917 -0.996965 0.511033 0.437893
2.320059 -2.122859 1.311884 0.695273 -0.695273 -0.182184 0.449975 0.577696
2.326672 -2.129473 1.378294 0.700197 -0.700197 -0.139459 0.447470 0.592477
2.308330 -2.111130 1.240559 0.678998 -0.678997 -0.279150 0.453220 0.561800
2.290725 -2.093526 1.170450 0.648981 -0.648981 -0.397049 0.457098 0.545809
2.266119 -2.068920 1.103984 0.598153 -0.598153 -0.533316 0.461691 0.529696
2.233382 -2.036183 1.043592 0.525576 -0.525577 -0.668983 0.467208 0.513130
2.203128 -2.005929 1.004137 0.440505 -0.440506 -0.782247 0.472163 0.500148
2.171755 -1.974556 0.974778 0.348246 -0.348245 -0.870316 0.477421 0.487842
2.139569 -1.942370 0.953990 0.253576 -0.253575 -0.933488 0.483191 0.475698
2.106876 -1.909676 0.940247 0.167268 -0.167267 -0.971619 0.489740 0.463268
2.073979 -1.876779 0.932026 0.097319 -0.097319 -0.990484 0.497404 0.450167
2.041183 -1.843984 0.927802 0.055581 -0.055588 -0.996906 0.506704 0.436011
2.411920 -1.985380 1.311884 0.908418 -0.376279 -0.182184 0.412419 0.568914
2.420560 -1.988959 1.378294 0.914849 -0.378944 -0.139469 0.408396 0.584959
2.396595 -1.979032 1.240559 0.887153 -0.367471 -0.279151 0.417733 0.551779
2.373594 -1.969505 1.170450 0.847934 -0.351226 -0.397049 0.424162 0.534745
2.341444 -1.956188 1.103984 0.781524 -0.323718 -0.533316 0.431817 0.517881
2.298671 -1.938471 1.043592 0.686698 -0.284440 -0.668984 0.441003 0.500976
2.259142 -1.922098 1.004138 0.575548 -0.238400 -0.782247 0.449211 0.488107
2.218151 -1.905119 0.974778 0.455005 -0.188469 -0.870316 0.457841 0.476305
2.176099 -1.887700 0.953990 0.331313 -0.137234 -0.933487 0.467174 0.465127
2.133382 -1.870006 0.940247 0.218545 -0.090524 -0.971619 0.477553 0.454249
2.090400 -1.852203 0.932026 0.127154 -0.052669 -0.990484 0.489372 0.443479
2.047551 -1.834454 0.927802 0.071912 -0.029799 -0.996966 0.503191 0.432749
2.444177 -1.823212 1.311884 0.983264 0.000000 -0.182184 0.370763 0.555260
2.453529 -1.823212 1.378294 0.990228 -0.000000 -0.139457 0.364846 0.573549
2.427589 -1.823212 1.240559 0.960247 0.000001 -0.279150 0.378771 0.535935
2.402693 -1.823212 1.170450 0.917798 0.000000 -0.397049 0.388628 0.517078
2.367894 -1.823212 1.103984 0.845916 -0.000000 -0.533316 0.400454 0.499011
2.321598 -1.823212 1.043592 0.743277 -0.000000 -0.668984 0.414490 0.481832
2.278811 -1.823212 1.004138 0.622970 0.000001 -0.782246 0.426971 0.469254
2.234444 -1.823212 0.974778 0.492494 -0.000000 -0.870316 0.439881 0.458507
2.188926 -1.823212 0.953990 0.358610 -0.000001 -0.933488 0.453447 0.449207
2.142690 -1.823212 0.940247 0.236551 -0.000001 -0.971619 0.467945 0.441113
2.096167 -1.823212 0.932026 0.137631 0.000000 -0.990484 0.483667 0.434151
2.049787 -1.823212 0.927802 0.078454 -0.000000 -0.996918 0.500957 0.428410
2.444177 -1.823212 1.311884 0.983264 0.000000 -0.182184 0.321328 0.572850
2.411919 -1.661044 1.311883 0.908418 0.376279 -0.182186 0.279107 0.585493
2.420560 -1.657465 1.378294 0.914854 0.378944 -0.139440 0.282746 0.601738
2.453529 -1.823212 1.378294 0.990228 -0.000000 -0.139457 0.326795 0.591426
2.396595 -1.667392 1.240559 0.887153 0.367471 -0.279150 0.274179 0.568090
2.427589 -1.823212 1.240559 0.960247 0.000001 -0.279150 0.313762 0.553141
2.373594 -1.676919 1.170450 0.847934 0.351226 -0.397048 0.268104 0.550723
2.402693 -1.823212 1.170450 0.917798 0.000000 -0.397049 0.304290 0.533814
2.341444 -1.690236 1.103984 0.781525 0.323719 -0.533315 0.260765 0.533452
2.367894 -1.823212 1.103984 0.845916 -0.000000 -0.533316 0.292775 0.515184
2.298671 -1.707953 1.043592 0.686698 0.284440 -0.668984 0.251866 0.516035
2.321598 -1.823212 1.043592 0.743277 -0.000000 -0.668984 0.278973 0.497345
2.259141 -1.724327 1.004137 0.575547 0.238399 -0.782248 0.243847 0.502731
2.278811 -1.823212 1.004138 0.622970 0.000001 -0.782246 0.266617 0.484190
2.218151 -1.741306 0.974778 0.455005 0.188470 -0.870316 0.235354 0.490479
2.234444 -1.823212 0.974778 0.492494 -0.000000 -0.870316 0.253753 0.472867
2.176099 -1.758725 0.953990 0.331313 0.137234 -0.933487 0.226106 0.478830
2.188926 -1.823212 0.953990 0.358610 -0.000001 -0.933488 0.240158 0.462993
2.133382 -1.776418 0.940247 0.218545 0.090524 -0.971619 0.215755 0.467461
2.142690 -1.823212 0.940247 0.236551 -0.000001 -0.971619 0.225558 0.454329
2.090400 -1.794222 0.932026 0.127154 0.052668 -0.990484 0.203896 0.456192
2.096167 -1.823212 0.932026 0.137631 0.000000 -0.990484 0.209650 0.446819
2.047551 -1.811971 0.927802 0.071912 0.029799 -0.996966 0.189971 0.444968
2.049787 -1.823212 0.927802 0.078454 -0.000000 -0.996918 0.192152 0.440624
2.320059 -1.523565 1.311884 0.695273 0.695273 -0.182184 0.241160 0.593405
2.326672 -1.516952 1.378294 0.700196 0.700195 -0.139471 0.243330 0.608316
2.308330 -1.535294 1.240559 0.678997 0.678998 -0.279150 0.238256 0.577333
2.290725 -1.552898 1.170450 0.648981 0.648981 -0.397049 0.234702 0.561123
2.266119 -1.577505 1.103984 0.598153 0.598153 -0.533316 0.230420 0.544734
2.233382 -1.610242 1.043592 0.525576 0.525576 -0.668984 0.225214 0.527815
2.203128 -1.640496 1.004138 0.440505 0.440505 -0.782247 0.220483 0.514525
2.171755 -1.671869 0.974778 0.348246 0.348247 -0.870315 0.215421 0.501887
2.139570 -1.704054 0.953990 0.253576 0.253577 -0.933487 0.209820 0.489380
2.106876 -1.736748 0.940247 0.167267 0.167267 -0.971619 0.203400 0.476546
2.073979 -1.769645 0.932026 0.097319 0.097319 -0.990484 0.195807 0.462996
2.041183 -1.802441 0.927802 0.055586 0.055585 -0.996906 0.186497 0.448329
2.182579 -1.431704 1.311884 0.376279 0.908418 -0.182185 0.205589 0.597521
2.186158 -1.423064 1.378294 0.378944 0.914850 -0.139466 0.206467 0.611752
2.176231 -1.447029 1.240559 0.367470 0.887153 -0.279150 0.204396 0.582138
2.166704 -1.470030 1.170450 0.351226 0.847935 -0.397048 0.202923 0.566541
2.153387 -1.502180 1.103984 0.323718 0.781525 -0.533316 0.201135 0.550649
2.135670 -1.544953 1.043592 0.284440 0.686698 -0.668984 0.198953 0.534061
2.119297 -1.584482 1.004138 0.238400 0.575548 -0.782247 0.196952 0.520838
2.102318 -1.625473 0.974778 0.188469 0.455005 -0.870316 0.194798 0.508070
2.084899 -1.667525 0.953990 0.137234 0.331314 -0.933487 0.192397 0.495194
2.067206 -1.710242 0.940247 0.090525 0.218545 -0.971619 0.189616 0.481666
2.049402 -1.753224 0.932026 0.052669 0.127154 -0.990484 0.186279 0.466947
2.031653 -1.796073 0.927802 0.029801 0.071913 -0.996966 0.182126 0.450381
2.020411 -1.399447 1.311884 -0.000000 0.983264 -0.182185 0.171066 0.598269
2.020411 -1.390094 1.378294 -0.000000 0.990228 -0.139459 0.170724 0.612300
2.020411 -1.416035 1.240559 -0.000000 0.960248 -0.279150 0.171457 0.583093
2.020411 -1.440931 1.170450 0.000000 0.917798 -0.397049 0.171882 0.567688
2.020411 -1.475729 1.103984 0.000000 0.845916 -0.533316 0.172355 0.551961
2.020411 -1.522026 1.043592 -0.000000 0.743276 -0.668984 0.172908 0.535504
2.020411 -1.564813 1.004138 -0.000000 0.622968 -0.782247 0.173394 0.522329
2.020411 -1.609180 0.974778 -0.000000 0.492494 -0.870316 0.173915 0.509556
2.020411 -1.654698 0.953990 -0.000000 0.358612 -0.933487 0.174503 0.496610
2.020411 -1.700934 0.940247 -0.000000 0.236552 -0.971619 0.175199 0.482924
2.020411 -1.747457 0.932026 0.000000 0.137630 -0.990484 0.176072 0.467917
2.020411 -1.793837 0.927802 0.000000 0.078457 -0.996917 0.177271 0.450869
1.858244 -1.431705 1.311884 -0.376279 0.908417 -0.182186 0.136506 0.595759
1.854664 -1.423064 1.378294 -0.378943 0.914852 -0.139458 0.134935 0.610019
1.864591 -1.447029 1.240559 -0.367471 0.887153 -0.279149 0.138490 0.580356
1.874119 -1.470030 1.170450 -0.351227 0.847935 -0.397048 0.140823 0.564757
1.887436 -1.502180 1.103984 -0.323718 0.781524 -0.533316 0.143565 0.548884
1.905153 -1.544953 1.043592 -0.284439 0.686697 -0.668985 0.146860 0.532350
1.921526 -1.584482 1.004138 -0.238399 0.575547 -0.782247 0.149838 0.519184
1.938505 -1.625473 0.974778 -0.188470 0.455006 -0.870316 0.153038 0.506493
1.955924 -1.667525 0.953990 -0.137235 0.331314 -0.933487 0.156618 0.493721
1.973618 -1.710242 0.940247 -0.090524 0.218545 -0.971619 0.160795 0.480337
1.991421 -1.753224 0.932026 -0.052669 0.127154 -0.990484 0.165882 0.465839
2.009170 -1.796073 0.927802 -0.030817 0.070522 -0.997034 0.172461 0.449709
1.720764 -1.523565 1.311884 -0.695273 0.695273 -0.182184 0.100816 0.589835
1.714151 -1.516952 1.378294 -0.700197 0.700194 -0.139472 0.097929 0.604808
1.732493 -1.535294 1.240559 -0.678998 0.678997 -0.279150 0.104541 0.573721
1.750097 -1.552898 1.170450 -0.648981 0.648981 -0.397049 0.108984 0.557503
1.774704 -1.577505 1.103984 -0.598153 0.598153 -0.533316 0.114247 0.541153
1.807441 -1.610242 1.043592 -0.525576 0.525576 -0.668984 0.120587 0.524340
1.837695 -1.640496 1.004138 -0.440505 0.440505 -0.782247 0.126312 0.511160
1.869068 -1.671869 0.974778 -0.348245 0.348246 -0.870316 0.132433 0.498671
1.901254 -1.704054 0.953990 -0.253577 0.253577 -0.933487 0.139224 0.486362
1.933947 -1.736748 0.940247 -0.167267 0.167268 -0.971619 0.147055 0.473803
1.966844 -1.769645 0.932026 -0.097319 0.097319 -0.990484 0.156420 0.460678
1.999640 -1.802441 0.927802 -0.036106 0.036106 -0.998695 0.168159 0.446928
1.628904 -1.661045 1.311883 -0.908418 0.376278 -0.182185 0.062647 0.580016
1.620263 -1.657465 1.378294 -0.914852 0.378942 -0.139460 0.058246 0.596368
1.644228 -1.667392 1.240559 -0.887153 0.367471 -0.279150 0.068450 0.562541
1.667229 -1.676919 1.170450 -0.847935 0.351226 -0.397048 0.075467 0.545157
1.699379 -1.690236 1.103984 -0.781525 0.323718 -0.533316 0.083833 0.527942
1.742152 -1.707953 1.043592 -0.686698 0.284440 -0.668984 0.093900 0.510679
1.781681 -1.724327 1.004137 -0.575547 0.238400 -0.782247 0.102942 0.497535
1.822672 -1.741306 0.974778 -0.455004 0.188470 -0.870316 0.112515 0.485488
1.864724 -1.758725 0.953990 -0.331313 0.137235 -0.933487 0.122978 0.474106
1.907441 -1.776418 0.940247 -0.218546 0.090524 -0.971619 0.134792 0.463107
1.950423 -1.794222 0.932026 -0.127153 0.052669 -0.990484 0.148534 0.452424
1.993272 -1.811971 0.927802 -0.070523 0.030819 -0.997034 0.165016 0.442786
1.596647 -1.823212 1.311884 -0.983264 -0.000000 -0.182185 0.020054 0.565304
1.587294 -1.823212 1.378294 -0.990228 -0.000000 -0.139458 0.013756 0.584054
1.613234 -1.823212 1.240559 -0.960248 -0.000000 -0.279150 0.028579 0.545474
1.638130 -1.823212 1.170450 -0.917798 -0.000000 -0.397048 0.039080 0.526111
1.672929 -1.823212 1.103984 -0.845916 -0.000000 -0.533316 0.051699 0.507550
1.719225 -1.823212 1.043592 -0.743277 -0.000000 -0.668984 0.066715 0.489900
1.762012 -1.823212 1.004138 -0.622968 -0.000001 -0.782247 0.080127 0.476939
1.806380 -1.823212 0.974778 -0.492494 -0.000001 -0.870316 0.094106 0.465855
1.851897 -1.823212 0.953990 -0.358610 0.000000 -0.933487 0.108970 0.456276
1.898133 -1.823212 0.940247 -0.236552 -0.000001 -0.971619 0.125155 0.448017
1.944656 -1.823212 0.932026 -0.137630 -0.000000 -0.990484 0.143287 0.441205
1.991036 -1.823212 0.927802 -0.078461 -0.000000 -0.996917 0.163398 0.437610
2.007346 -1.810148 0.927113 -0.040345 0.040345 -0.998371 0.171684 0.443416
2.033474 -1.836277 0.927113 0.037011 -0.037012 -0.998629 0.509345 0.432187
2.034285 -1.823212 0.926828 0.042723 0.000637 -0.999087 0.507869 0.426503
2.033474 -1.810148 0.927113 0.036183 0.036184 -0.998690 0.183722 0.444461
2.006534 -1.823212 0.926828 -0.043399 0.000000 -0.999058 0.521122 0.425183
2.007346 -1.836276 0.927113 -0.037018 -0.037017 -0.998629 0.520786 0.431039
2.006534 -1.823212 0.926828 -0.043399 0.000000 -0.999058 0.171296 0.437082
2.034285 -1.823212 0.926828 0.042723 0.000637 -0.999087 0.185220 0.438638
2.020410 -1.809336 0.926828 0.000636 0.042729 -0.999086 0.177758 0.444075
2.020409 -1.823212 0.926425 0.000675 0.000680 -1.000000 0.178404 0.437483
2.020409 -1.823212 0.926425 0.000675 0.000680 -1.000000 0.514457 0.425470
2.020410 -1.837088 0.926828 -0.000001 -0.043394 -0.999058 0.515080 0.431744
1.729319 -1.943787 1.381993 -0.000000 0.000000 1.000000 0.633197 0.585074
1.705335 -1.823212 1.381993 -0.000001 0.000001 1.000000 0.678444 0.573621
1.797619 -2.046005 1.381993 -0.000000 -0.000001 1.000000 0.593022 0.592757
1.899837 -2.114305 1.381993 -0.000000 -0.000000 1.000000 0.555723 0.597254
2.020411 -2.138289 1.381993 0.000000 0.000000 1.000000 0.519800 0.598821
2.140986 -2.114305 1.381993 0.000000 0.000000 1.000000 0.484061 0.597530
2.243205 -2.046005 1.381993 0.000001 -0.000000 1.000000 0.447330 0.593300
2.311505 -1.943787 1.381993 0.000000 -0.000000 1.000000 0.408172 0.585853
2.335488 -1.823212 1.381993 0.000000 0.000001 1.000000 0.364516 0.574567
2.311504 -1.702638 1.381993 0.000001 -0.000000 1.000000 0.282949 0.602643
2.335488 -1.823212 1.381993 0.000000 0.000001 1.000000 0.327099 0.592461
2.243205 -1.600419 1.381993 0.000001 -0.000000 1.000000 0.243451 0.609147
2.140986 -1.532119 1.381993 0.000000 0.000001 1.000000 0.206516 0.612545
2.020411 -1.508136 1.381993 -0.000000 0.000001 1.000000 0.170705 0.613082
1.899837 -1.532119 1.381993 -0.000000 0.000001 1.000000 0.134847 0.610813
1.797619 -1.600420 1.381993 -0.000001 -0.000001 1.000000 0.097768 0.605642
1.729319 -1.702638 1.381993 -0.000001 0.000001 1.000000 0.058000 0.597279
1.705335 -1.823212 1.381993 -0.000001 0.000001 1.000000 0.013405 0.585098
2.205073 -1.729100 1.381993 0.000001 -0.000000 1.000000 0.282965 0.602639
1.928396 -1.915228 1.381993 0.000000 0.000000 1.000000 0.432451 0.601225
2.020411 -1.916440 1.381993 0.000000 0.000000 1.000000 0.412049 0.603223
2.112427 -1.915228 1.381993 0.000000 0.000000 1.000000 0.402770 0.601928
2.112427 -1.731198 1.381993 0.000000 0.000000 1.000000 0.287838 0.608146
2.020411 -1.729987 1.381993 0.000000 0.000000 1.000000 0.278481 0.608679
1.928396 -1.731198 1.381993 0.000000 0.000000 1.000000 0.258138 0.606841
1.927185 -1.823213 1.381993 0.000000 0.000000 1.000000 0.345285 0.604034
2.020411 -1.823213 1.381993 0.000000 0.000000 1.000000 0.345253 0.605951
2.113638 -1.823213 1.381993 0.000000 0.000000 1.000000 0.345289 0.605038
3 0 1 2
3 2 3 0
3 4 1 0
3 0 5 4
3 6 4 5
3 5 7 6
3 8 6 7
3 7 9 8
3 10 8 9
3 9 11 10
3 12 10 11
3 11 13 12
3 14 12 13
3 13 15 14
3 16 14 15
3 15 17 16
3 18 16 17
3 17 19 18
3 20 18 19
3 19 21 20
3 22 20 21
3 21 23 22
3 1 24 25
3 25 2 1
3 26 24 1
3 1 4 26
3 27 26 4
3 4 6 27
3 28 27 6
3 6 8 28
3 29 28 8
3 8 10 29
3 30 29 10
3 10 12 30
3 31 30 12
3 12 14 31
3 32 31 14
3 14 16 32
3 33 32 16
3 16 18 33
3 34 33 18
3 18 20 34
3 35 34 20
3 20 22 35
3 24 36 37
3 37 25 24
3 38 36 24
3 24 26 38
3 39 38 26
3 26 27 39
3 40 39 27
3 27 28 40
3 41 40 28
3 28 29 41
3 42 41 29
3 29 30 42
3 43 42 30
3 30 31 43
3 44 43 31
3 31 32 44
3 45 44 32
3 32 33 45
3 46 45 33
3 33 34 46
3 47 46 34
3 34 35 47
3 36 48 49
3 49 37 36
3 50 48 36
3 36 38 50
3 51 50 38
3 38 39 51
3 52 51 39
3 39 40 52
3 53 52 40
3 40 41 53
3 54 53 41
3 41 42 54
3 55 54 42
3 42 43 55
3 56 55 43
3 43 44 56
3 57 56 44
3 44 45 57
3 45 46 58
3 58 57 45
3 59 58 46
3 46 47 59
3 48 60 61
3 61 49 48
3 62 60 48
3 48 50 62
3 63 62 50
3 50 51 63
3 64 63 51
3 51 52 64
3 65 64 52
3 52 53 65
3 66 65 53
3 53 54 66
3 67 66 54
3 54 55 67
3 68 67 55
3 55 56 68
3 69 68 56
3 56 57 69
3 57 58 70
3 70 69 57
3 71 70 58
3 58 59 71
3 60 72 73
3 73 61 60
3 74 72 60
3 60 62 74
3 75 74 62
3 62 63 75
3 76 75 63
3 63 64 76
3 77 76 64
3 64 65 77
3 78 77 65
3 65 66 78
3 79 78 66
3 66 67 79
3 80 79 67
3 67 68 80
3 81 80 68
3 68 69 81
3 82 81 69
3 69 70 82
3 83 82 70
3 70 71 83
3 72 84 85
3 85 73 72
3 86 84 72
3 72 74 86
3 87 86 74
3 74 75 87
3 88 87 75
3 75 76 88
3 89 88 76
3 76 77 89
3 90 89 77
3 77 78 90
3 91 90 78
3 78 79 91
3 92 91 79
3 79 80 92
3 93 92 80
3 80 81 93
3 94 93 81
3 81 82 94
3 95 94 82
3 82 83 95
3 84 96 97
3 97 85 84
3 98 96 84
3 84 86 98
3 99 98 86
3 86 87 99
3 100 99 87
3 87 88 100
3 101 100 88
3 88 89 101
3 102 101 89
3 89 90 102
3 103 102 90
3 90 91 103
3 104 103 91
3 91 92 104
3 105 104 92
3 92 93 105
3 106 105 93
3 93 94 106
3 107 106 94
3 94 95 107
3 108 109 110
3 110 111 108
3 112 109 108
3 108 113 112
3 114 112 113
3 113 115 114
3 116 114 115
3 115 117 116
3 118 116 117
3 117 119 118
3 120 118 119
3 119 121 120
3 122 120 121
3 121 123 122
3 124 122 123
3 123 125 124
3 126 124 125
3 125 127 126
3 128 126 127
3 127 129 128
3 130 128 129
3 129 131 130
3 109 132 133
3 133 110 109
3 134 132 109
3 109 112 134
3 135 134 112
3 112 114 135
3 136 135 114
3 114 116 136
3 137 136 116
3 116 118 137
3 138 137 118
3 118 120 138
3 139 138 120
3 120 122 139
3 140 139 122
3 122 124 140
3 141 140 124
3 124 126 141
3 142 141 126
3 126 128 142
3 143 142 128
3 128 130 143
3 132 144 145
3 145 133 132
3 146 144 132
3 132 134 146
3 147 146 134
3 134 135 147
3 148 147 135
3 135 136 148
3 149 148 136
3 136 137 149
3 150 149 137
3 137 138 150
3 151 150 138
3 138 139 151
3 152 151 139
3 139 140 152
3 153 152 140
3 140 141 153
3 154 153 141
3 141 142 154
3 155 154 142
3 142 143 155
3 144 156 157
3 157 145 144
3 158 156 144
3 144 146 158
3 159 158 146
3 146 147 159
3 160 159 147
3 147 148 160
3 161 160 148
3 148 149 161
3 162 161 149
3 149 150 162
3 163 162 150
3 150 151 163
3 164 163 151
3 151 152 164
3 165 164 152
3 152 153 165
3 153 154 166
3 166 165 153
3 167 166 154
3 154 155 167
3 156 168 169
3 169 157 156
3 170 168 156
3 156 158 170
3 171 170 158
3 158 159 171
3 172 171 159
3 159 160 172
3 173 172 160
3 160 161 173
3 174 173 161
3 161 162 174
3 175 174 162
3 162 163 175
3 176 175 163
3 163 164 176
3 177 176 164
3 164 165 177
3 165 166 178
3 178 177 165
3 179 178 166
3 166 167 179
3 168 180 181
3 181 169 168
3 182 180 168
3 168 170 182
3 183 182 170
3 170 171 183
3 184 183 171
3 171 172 184
3 185 184 172
3 172 173 185
3 186 185 173
3 173 174 186
3 187 186 174
3 174 175 187
3 188 187 175
3 175 176 188
3 189 188 176
3 176 177 189
3 190 189 177
3 177 178 190
3 191 190 178
3 178 179 191
3 180 192 193
3 193 181 180
3 194 192 180
3 180 182 194
3 195 194 182
3 182 183 195
3 196 195 183
3 183 184 196
3 197 196 184
3 184 185 197
3 198 197 185
3 185 186 198
3 199 198 186
3 186 187 199
3 200 199 187
3 187 188 200
3 201 200 188
3 188 189 201
3 202 201 189
3 189 190 202
3 203 202 190
3 190 191 203
3 193 192 204
3 204 205 193
3 206 204 192
3 192 194 206
3 207 206 194
3 194 195 207
3 208 207 195
3 195 196 208
3 209 208 196
3 196 197 209
3 210 209 197
3 197 198 210
3 211 210 198
3 198 199 211
3 212 211 199
3 199 200 212
3 213 212 200
3 200 201 213
3 214 213 201
3 201 202 214
3 215 214 202
3 202 203 215
3 179 216 203
3 203 191 179
3 95 217 218
3 218 107 95
3 143 130 219
3 219 155 143
3 220 221 22
3 22 23 220
3 35 22 221
3 221 47 35
3 83 71 217
3 217 95 83
3 203 216 222
3 222 215 203
3 223 219 130
3 130 131 223
3 155 219 224
3 224 167 155
3 224 219 223
3 223 225 224
3 226 218 217
3 217 227 226
3 227 217 71
3 71 59 227
3 47 221 227
3 227 59 47
3 221 220 226
3 226 227 221
3 225 222 216
3 216 224 225
3 179 167 224
3 224 216 179
3 228 229 229
3 229 228 228
3 230 228 228
3 228 230 230
3 231 230 230
3 230 231 231
3 232 231 231
3 231 232 232
3 233 232 232
3 232 233 233
3 234 233 233
3 233 234 234
3 235 234 234
3 234 235 235
3 236 235 235
3 235 236 236
3 237 238 238
3 238 237 237
3 239 237 237
3 237 239 239
3 240 239 239
3 239 240 240
3 241 240 240
3 240 241 241
3 242 241 241
3 241 242 242
3 243 242 242
3 242 243 243
3 244 243 243
3 243 244 244
3 245 244 244
3 244 245 245
3 228 228 229
3 229 229 228
3 230 230 228
3 228 228 230
3 231 231 230
3 230 230 231
3 232 232 231
3 231 231 232
3 233 233 232
3 232 232 233
3 234 234 233
3 233 233 234
3 235 235 234
3 234 234 235
3 236 236 235
3 235 235 236
3 237 246 238
3 238 238 237
3 239 239 246
3 246 237 239
3 240 240 239
3 239 239 240
3 241 241 240
3 240 240 241
3 242 242 241
3 241 241 242
3 243 243 242
3 242 242 243
3 244 244 243
3 243 243 244
3 245 245 244
3 244 244 245
3 228 230 231
3 231 247 228
3 231 232 248
3 248 247 231
3 249 233 234
3 234 235 249
3 248 232 233
3 233 249 248
3 239 240 250
3 250 246 239
3 240 241 251
3 251 250 240
3 251 241 242
3 242 252 251
3 252 242 243
3 243 244 252
3 244 229 253
3 253 252 244
3 253 254 251
3 251 252 253
3 254 255 250
3 250 251 254
3 255 238 246
3 246 250 255
3 235 238 255
3 255 249 235
3 255 254 248
3 248 249 255
3 254 253 247
3 247 248 254
3 253 229 228
3 228 247 253
3 228 229 3
3 3 2 228
3 230 228 2
3 2 25 230
3 231 230 25
3 25 37 231
3 232 231 37
3 37 49 232
3 233 232 49
3 49 61 233
3 234 233 61
3 61 73 234
3 235 234 73
3 73 85 235
3 236 235 85
3 85 97 236
3 237 238 111
3 111 110 237
3 239 237 110
3 110 133 239
3 240 239 133
3 133 145 240
3 241 240 145
3 145 157 241
3 242 241 157
3 157 169 242
3 243 242 169
3 169 181 243
3 244 243 181
3 181 193 244
3 245 244 193
3 193 205 245
3 229 228 228
3 228 229 229
3 228 230 230
3 230 228 228
3 230 231 231
3 231 230 230
3 231 232 232
3 232 231 231
3 232 233 233
3 233 232 232
3 233 234 234
3 234 233 233
3 234 235 235
3 235 234 234
3 235 236 236
3 236 235 235
3 238 237 237
3 237 238 238
3 237 239 239
3 239 237 237
3 239 240 240
3 240 239 239
3 240 241 241
3 241 240 240
3 241 242 242
3 242 241 241
3 242 243 243
3 243 242 242
3 243 244 244
3 244 243 243
3 244 245 245
3 245 244 244
